<?xml version="1.0" encoding="utf-8"?>
<!-- Generator: Adobe Illustrator 16.0.0, SVG Export Plug-In . SVG Version: 6.00 Build 0)  -->
<!DOCTYPE svg PUBLIC "-//W3C//DTD SVG 1.1//EN" "http://www.w3.org/Graphics/SVG/1.1/DTD/svg11.dtd">
<svg version="1.1" id="Calque_1" xmlns="http://www.w3.org/2000/svg" xmlns:xlink="http://www.w3.org/1999/xlink" x="0px" y="0px"
	 width="241.5px" height="21.5px" viewBox="0 0 241.5 21.5" enable-background="new 0 0 241.5 21.5" xml:space="preserve">
<path d="M12.218,14.269l4.421-9.78c0.188-0.415,0.281-0.736,0.281-0.964c0-0.35-0.269-0.578-0.806-0.684V2.45h5.704V2.84
	c-0.358,0.049-0.607,0.151-0.745,0.305c-0.139,0.155-0.379,0.603-0.721,1.343l-5.777,12.463c-0.245,0.529-0.367,0.875-0.367,1.038
	c0,0.415,0.256,0.659,0.77,0.732v0.391H9.238v-0.391c0.513-0.073,0.77-0.321,0.77-0.745c0-0.154-0.123-0.496-0.367-1.025
	L3.863,4.488C3.521,3.748,3.281,3.3,3.143,3.146C3.004,2.991,2.756,2.889,2.397,2.84V2.45h5.919V2.84
	C7.78,2.946,7.511,3.174,7.511,3.524c0,0.228,0.093,0.549,0.281,0.964L12.218,14.269z"/>
<path d="M33.305,14.864h-7.573l-1.122,2.344c-0.155,0.326-0.232,0.582-0.232,0.769c0,0.358,0.272,0.606,0.816,0.745v0.391h-5.511
	v-0.391c0.325-0.065,0.574-0.179,0.745-0.342c0.171-0.163,0.366-0.48,0.586-0.952l6.128-12.805c0.195-0.407,0.293-0.732,0.293-0.977
	c0-0.374-0.236-0.643-0.708-0.806V2.45h5.908V2.84c-0.48,0.139-0.72,0.378-0.72,0.72c0,0.236,0.077,0.505,0.232,0.806l6.348,12.842
	c0.269,0.545,0.504,0.917,0.708,1.117c0.203,0.199,0.476,0.332,0.818,0.396v0.391h-6.134v-0.391
	c0.539-0.089,0.809-0.342,0.809-0.757c0-0.171-0.082-0.423-0.244-0.757L33.305,14.864z M32.258,12.582l-2.702-5.936l-2.746,5.936
	H32.258z"/>
<path d="M45.549,7.699v10.132c0,0.252,0.057,0.444,0.171,0.574c0.114,0.13,0.317,0.236,0.61,0.317v0.391h-4.895v-0.391
	c0.293-0.081,0.496-0.187,0.61-0.317c0.114-0.13,0.171-0.321,0.171-0.574V3.719c0-0.244-0.057-0.431-0.171-0.562
	c-0.114-0.13-0.317-0.236-0.61-0.317V2.45H47.1V2.84c-0.35,0.09-0.525,0.277-0.525,0.562c0,0.195,0.114,0.411,0.342,0.647
	l9.192,9.558V3.719c0-0.244-0.057-0.431-0.171-0.562c-0.114-0.13-0.317-0.236-0.61-0.317V2.45h4.895V2.84
	c-0.293,0.082-0.497,0.188-0.61,0.317c-0.114,0.13-0.171,0.317-0.171,0.562v14.111c0,0.252,0.057,0.444,0.171,0.574
	c0.114,0.13,0.317,0.236,0.61,0.317v0.391h-5.249v-0.391c0.342-0.073,0.513-0.248,0.513-0.525c0-0.163-0.2-0.447-0.598-0.854
	L45.549,7.699z"/>
<path d="M64.006,17.831V3.731c0-0.252-0.057-0.443-0.171-0.574c-0.114-0.13-0.317-0.236-0.61-0.317V2.45h9.295
	c2.036,0,3.6,0.232,4.691,0.696c1.563,0.676,2.72,1.791,3.469,3.345c0.594,1.221,0.892,2.649,0.892,4.285
	c0,2.873-0.884,5.062-2.651,6.567c-0.741,0.635-1.608,1.088-2.602,1.361c-0.994,0.273-2.26,0.409-3.799,0.409h-9.295v-0.391
	c0.293-0.081,0.496-0.187,0.61-0.317C63.949,18.274,64.006,18.083,64.006,17.831z M67.644,16.366h4.571
	c1.458,0,2.554-0.199,3.288-0.598c1.572-0.854,2.359-2.519,2.359-4.993c0-1.79-0.424-3.162-1.271-4.114
	c-0.473-0.529-1.043-0.905-1.711-1.129c-0.668-0.224-1.557-0.336-2.665-0.336h-4.571V16.366z"/>
<path d="M88.604,11.8v4.565h10.718c0.244,0,0.431-0.057,0.561-0.171c0.131-0.114,0.236-0.317,0.318-0.61h0.391v4.309h-0.391
	c-0.082-0.293-0.188-0.497-0.318-0.61c-0.13-0.114-0.316-0.171-0.561-0.171H84.185v-0.391c0.293-0.081,0.496-0.187,0.61-0.317
	c0.114-0.13,0.171-0.321,0.171-0.574V3.731c0-0.252-0.057-0.443-0.171-0.574c-0.114-0.13-0.317-0.236-0.61-0.317V2.45h14.844
	c0.244,0,0.431-0.058,0.561-0.174c0.131-0.116,0.236-0.318,0.318-0.607h0.391v4.309h-0.391c-0.082-0.29-0.188-0.492-0.318-0.608
	c-0.13-0.115-0.316-0.173-0.561-0.173H88.604v3.955h6.763c0.244,0,0.431-0.057,0.561-0.171c0.131-0.114,0.236-0.317,0.318-0.61
	h0.391v4.211h-0.391c-0.082-0.285-0.188-0.486-0.318-0.604c-0.13-0.118-0.316-0.177-0.561-0.177H88.604z"/>
<path d="M107.292,7.699v10.132c0,0.252,0.057,0.444,0.171,0.574c0.114,0.13,0.317,0.236,0.61,0.317v0.391h-4.895v-0.391
	c0.293-0.081,0.496-0.187,0.609-0.317c0.114-0.13,0.172-0.321,0.172-0.574V3.719c0-0.244-0.058-0.431-0.172-0.562
	c-0.113-0.13-0.316-0.236-0.609-0.317V2.45h5.664V2.84c-0.351,0.09-0.525,0.277-0.525,0.562c0,0.195,0.114,0.411,0.342,0.647
	l9.191,9.558V3.719c0-0.244-0.057-0.431-0.17-0.562c-0.114-0.13-0.318-0.236-0.611-0.317V2.45h4.896V2.84
	c-0.293,0.082-0.496,0.188-0.61,0.317c-0.114,0.13-0.171,0.317-0.171,0.562v14.111c0,0.252,0.057,0.444,0.171,0.574
	c0.114,0.13,0.317,0.236,0.61,0.317v0.391h-5.249v-0.391c0.342-0.073,0.513-0.248,0.513-0.525c0-0.163-0.199-0.447-0.599-0.854
	L107.292,7.699z"/>
<path d="M139.813,10.384c1.871,0.708,2.807,2.019,2.807,3.931c0,1.522-0.545,2.714-1.635,3.577
	c-0.553,0.432-1.195,0.743-1.922,0.934c-0.729,0.191-1.631,0.287-2.705,0.287h-11.389v-0.391c0.293-0.081,0.496-0.187,0.609-0.317
	c0.115-0.13,0.172-0.321,0.172-0.574V3.731c0-0.252-0.057-0.443-0.172-0.574c-0.113-0.13-0.316-0.236-0.609-0.317V2.45h11.279
	c1.082,0,1.953,0.082,2.611,0.244c0.66,0.163,1.238,0.439,1.734,0.83c0.984,0.773,1.477,1.888,1.477,3.345
	C142.07,8.497,141.318,9.668,139.813,10.384z M129.387,9.078h6.385c0.969,0,1.645-0.142,2.027-0.427
	c0.432-0.325,0.646-0.83,0.646-1.514c0-0.7-0.203-1.198-0.611-1.496c-0.406-0.297-1.094-0.445-2.063-0.445h-6.385V9.078z
	 M129.387,16.366h6.178c1.146,0,1.973-0.159,2.479-0.476c0.578-0.366,0.865-0.964,0.865-1.794c0-0.822-0.287-1.42-0.865-1.794
	c-0.496-0.317-1.322-0.476-2.479-0.476h-6.178V16.366z"/>
<path d="M149.541,11.8v4.565h10.719c0.244,0,0.43-0.057,0.561-0.171c0.131-0.114,0.236-0.317,0.318-0.61h0.391v4.309h-0.391
	c-0.082-0.293-0.188-0.497-0.318-0.61c-0.131-0.114-0.316-0.171-0.561-0.171h-15.137v-0.391c0.293-0.081,0.496-0.187,0.609-0.317
	c0.113-0.13,0.172-0.321,0.172-0.574V3.731c0-0.252-0.059-0.443-0.172-0.574c-0.113-0.13-0.316-0.236-0.609-0.317V2.45h14.844
	c0.244,0,0.43-0.058,0.561-0.174s0.236-0.318,0.318-0.607h0.391v4.309h-0.391c-0.082-0.29-0.188-0.492-0.318-0.608
	c-0.131-0.115-0.316-0.173-0.561-0.173h-10.426v3.955h6.764c0.244,0,0.43-0.057,0.561-0.171c0.131-0.114,0.236-0.317,0.318-0.61
	h0.391v4.211h-0.391c-0.082-0.285-0.188-0.486-0.318-0.604c-0.131-0.118-0.316-0.177-0.561-0.177H149.541z"/>
<path d="M168.535,12.313v5.53c0,0.244,0.059,0.434,0.178,0.567c0.117,0.135,0.318,0.238,0.604,0.312v0.391h-5.199v-0.391
	c0.293-0.081,0.496-0.187,0.609-0.317c0.113-0.13,0.172-0.317,0.172-0.562V3.731c0-0.252-0.059-0.443-0.172-0.574
	c-0.113-0.13-0.316-0.236-0.609-0.317V2.45h10.424c1.27,0,2.277,0.073,3.021,0.22s1.393,0.403,1.947,0.769
	c0.643,0.423,1.123,0.997,1.439,1.721c0.301,0.7,0.453,1.449,0.453,2.246c0,2.718-1.51,4.309-4.529,4.773l3.234,4.602
	c0.57,0.806,0.986,1.325,1.252,1.556c0.264,0.232,0.588,0.36,0.971,0.385v0.391h-6.021v-0.391c0.414-0.065,0.621-0.211,0.621-0.439
	c0-0.146-0.189-0.5-0.572-1.062l-3.375-4.907H168.535z M168.535,9.566h5.615c0.83,0,1.416-0.024,1.758-0.073s0.654-0.15,0.939-0.305
	c0.619-0.333,0.928-0.936,0.928-1.807c0-0.871-0.309-1.473-0.928-1.807c-0.293-0.163-0.604-0.267-0.934-0.311
	c-0.33-0.045-0.918-0.067-1.764-0.067h-5.615V9.566z"/>
<path d="M198.832,13.119h-4.113c-0.252,0-0.441,0.057-0.566,0.171c-0.127,0.114-0.23,0.317-0.313,0.61h-0.391v-3.882h0.391
	c0.082,0.301,0.186,0.506,0.311,0.617c0.127,0.109,0.316,0.165,0.568,0.165h7.898v0.391c-0.289,0.082-0.49,0.188-0.607,0.317
	c-0.115,0.13-0.174,0.322-0.174,0.574v3.418c0,0.252,0.057,0.444,0.168,0.574c0.113,0.13,0.316,0.236,0.613,0.317v0.305
	c-3.164,1.807-6.23,2.71-9.197,2.71c-2.693,0-4.889-0.639-6.588-1.917c-2.139-1.611-3.209-3.849-3.209-6.714
	c0-2.669,0.951-4.793,2.855-6.372c1.807-1.497,4.209-2.246,7.203-2.246c0.951,0,1.85,0.087,2.691,0.262
	c0.842,0.175,1.801,0.47,2.875,0.885c0.553,0.22,0.947,0.33,1.184,0.33c0.172,0,0.371-0.093,0.598-0.281l0.342,0.183l-1.959,3.992
	l-0.354-0.182c-0.008-0.267-0.045-0.459-0.109-0.577c-0.064-0.117-0.211-0.261-0.439-0.431c-0.496-0.373-1.225-0.69-2.184-0.954
	c-0.961-0.263-1.867-0.395-2.721-0.395c-1.74,0-3.186,0.488-4.332,1.463c-1.293,1.105-1.939,2.565-1.939,4.378
	c0,1.756,0.631,3.174,1.893,4.255c1.154,0.992,2.678,1.488,4.564,1.488c0.92,0,1.828-0.105,2.723-0.317
	c0.895-0.211,1.668-0.5,2.318-0.867V13.119z"/>
<path d="M217.219,12.086l-0.75,1.191l-0.126-0.087c0.058-0.097,0.087-0.17,0.087-0.219c0-0.1-0.174-0.243-0.521-0.428
	c-0.671-0.363-1.357-0.545-2.06-0.545c-0.817,0-1.505,0.229-2.064,0.688c-0.642,0.521-0.962,1.223-0.962,2.107
	c0,0.862,0.306,1.548,0.918,2.059c0.563,0.472,1.282,0.708,2.158,0.708c0.462,0,0.902-0.072,1.32-0.217
	c0.419-0.145,0.771-0.348,1.058-0.608v-1.23h-1.577c-0.137,0-0.233,0.021-0.291,0.063c-0.057,0.042-0.1,0.125-0.129,0.249h-0.156
	v-1.26h0.156c0.029,0.124,0.072,0.207,0.129,0.249c0.058,0.042,0.154,0.063,0.291,0.063h2.622v0.156
	c-0.124,0.033-0.207,0.077-0.249,0.132s-0.063,0.151-0.063,0.288v0.864c0,0.137,0.021,0.233,0.063,0.288s0.125,0.099,0.249,0.132
	v0.137c-0.368,0.329-0.715,0.584-1.04,0.767c-0.706,0.397-1.512,0.596-2.417,0.596c-1.113,0-2.014-0.301-2.7-0.903
	c-0.339-0.296-0.607-0.651-0.806-1.064c-0.225-0.472-0.337-0.97-0.337-1.494c0-0.752,0.22-1.419,0.659-2.002
	c0.407-0.537,0.954-0.929,1.641-1.177c0.485-0.172,1.006-0.259,1.563-0.259c0.488,0,0.94,0.059,1.357,0.176s0.866,0.311,1.348,0.581
	c0.14,0.078,0.227,0.117,0.259,0.117c0.052,0,0.132-0.068,0.239-0.205L217.219,12.086z"/>
<path d="M219.665,17.477h4.258c0.137,0,0.233-0.021,0.29-0.063c0.058-0.042,0.101-0.125,0.13-0.249h0.156v1.26h-0.156
	c-0.029-0.124-0.072-0.207-0.13-0.249c-0.057-0.042-0.153-0.063-0.29-0.063h-5.337v-0.156c0.127-0.033,0.211-0.077,0.252-0.132
	c0.04-0.055,0.061-0.151,0.061-0.288v-5.513c0-0.137-0.021-0.233-0.063-0.288s-0.125-0.099-0.249-0.132v-0.156h1.392v0.156
	c-0.124,0.033-0.207,0.077-0.249,0.132s-0.063,0.151-0.063,0.288V17.477z"/>
<path d="M226.447,15.114v2.422c0,0.133,0.021,0.229,0.063,0.285c0.042,0.057,0.125,0.102,0.249,0.134v0.156h-1.392v-0.156
	c0.124-0.033,0.207-0.077,0.249-0.132s0.063-0.151,0.063-0.288v-5.513c0-0.137-0.021-0.233-0.063-0.291s-0.125-0.1-0.249-0.129
	v-0.156h3.657c0.501,0,0.897,0.027,1.188,0.081c0.292,0.054,0.545,0.147,0.76,0.281c0.222,0.137,0.4,0.324,0.537,0.562
	c0.156,0.271,0.234,0.576,0.234,0.915c0,0.509-0.168,0.923-0.506,1.245c-0.336,0.321-0.8,0.504-1.389,0.55l1.694,2.632
	c0.101,0.163,0.247,0.244,0.439,0.244v0.156h-1.543v-0.156c0.159-0.026,0.239-0.071,0.239-0.137c0-0.032-0.057-0.138-0.171-0.316
	l-1.514-2.389H226.447z M226.447,14.479h2.7c0.368,0,0.646-0.016,0.832-0.046c0.188-0.031,0.353-0.087,0.496-0.168
	c0.335-0.195,0.503-0.522,0.503-0.981c0-0.462-0.173-0.791-0.518-0.986c-0.153-0.084-0.323-0.142-0.511-0.171
	c-0.187-0.029-0.478-0.044-0.871-0.044h-2.632V14.479z"/>
<path d="M235.896,15.16v2.375c0,0.134,0.021,0.229,0.063,0.286s0.125,0.102,0.249,0.134v0.156h-1.392v-0.156
	c0.124-0.033,0.207-0.077,0.249-0.132c0.042-0.056,0.063-0.151,0.063-0.289V15.16l-2.153-2.82c-0.234-0.306-0.396-0.5-0.485-0.581
	c-0.09-0.082-0.201-0.133-0.335-0.156v-0.156h1.692v0.156c-0.153,0.039-0.23,0.103-0.23,0.19c0,0.107,0.077,0.265,0.23,0.473
	l1.691,2.304l1.688-2.382c0.144-0.202,0.215-0.338,0.215-0.41c0-0.082-0.071-0.14-0.215-0.176v-0.156h1.574v0.156
	c-0.159,0.029-0.296,0.101-0.41,0.215c-0.234,0.247-0.386,0.421-0.454,0.522L235.896,15.16z"/>
</svg>
